v -0.1584905660377359 -0.1358490566037736 0.0226415094339623
v -0.1584905660377359 -0.1358490566037736 0.3622641509433963
v 0.1584905660377359 -0.1358490566037736 0.3622641509433963
v 0.1584905660377359 -0.1358490566037736 0.0226415094339623
v 0.1584905660377359 -0.1359927771226415 0.3655530476120283
v -0.1584905660377359 -0.1359927771226415 0.3655530476120283
v 0.1584905660377359 -0.1364224646226415 0.3688168853183962
v -0.1584905660377359 -0.1364224646226415 0.3688168853183962
v 0.1584905660377359 -0.1371351709905660 0.3720308814858491
v -0.1584905660377359 -0.1371351709905660 0.3720308814858491
v 0.1584905660377359 -0.1381250000000000 0.3751705299233491
v -0.1584905660377359 -0.1381250000000000 0.3751705299233491
v 0.1584905660377359 -0.1393845813679245 0.3782119693396227
v -0.1584905660377359 -0.1393845813679245 0.3782119693396227
v 0.1584905660377359 -0.1409043337264151 0.3811320754716981
v -0.1584905660377359 -0.1409043337264151 0.3811320754716981
v 0.1584905660377359 -0.1426732016509434 0.3839085532134434
v -0.1584905660377359 -0.1426732016509434 0.3839085532134434
v 0.1584905660377359 -0.1446779186320755 0.3865203051297170
v -0.1584905660377359 -0.1446779186320755 0.3865203051297170
v 0.1584905660377359 -0.1469015330188679 0.3889474314563680
v -0.1584905660377359 -0.1469015330188679 0.3889474314563680
v 0.1584905660377359 -0.1493285672169812 0.3911715064858491
v -0.1584905660377359 -0.1493285672169812 0.3911715064858491
v 0.1584905660377359 -0.1519405955188679 0.3931755785672170
v -0.1584905660377359 -0.1519405955188679 0.3931755785672170
v 0.1584905660377359 -0.1547169811320755 0.3949443543632076
v -0.1584905660377359 -0.1547169811320755 0.3949443543632076
v 0.1584905660377359 -0.1576370872641510 0.3964644752358491
v -0.1584905660377359 -0.1576370872641510 0.3964644752358491
v 0.1584905660377359 -0.1606788030660377 0.3977242408608491
v -0.1584905660377359 -0.1606788030660377 0.3977242408608491
v 0.1584905660377359 -0.1638178066037736 0.3987141619988208
v -0.1584905660377359 -0.1638178066037736 0.3987141619988208
v 0.1584905660377359 -0.1670319870283019 0.3994266841096699
v -0.1584905660377359 -0.1670319870283019 0.3994266841096699
v 0.1584905660377359 -0.1702962853773585 0.3998563716096699
v -0.1584905660377359 -0.1702962853773585 0.3998563716096699
v 0.1584905660377359 -0.1735849056603774 0.4000000000000000
v -0.1584905660377359 -0.1735849056603774 0.4000000000000000
v -0.1610255748820755 -0.1359913030660377 0.3622641509433963
v -0.1610255748820755 -0.1359913030660377 0.0226415094339623
v -0.1635287072523585 -0.1364165683962264 0.3622641509433963
v -0.1635287072523585 -0.1364165683962264 0.0226415094339623
v -0.1659686394457547 -0.1371196933962264 0.3622641509433963
v -0.1659686394457547 -0.1371196933962264 0.0226415094339623
v -0.1683144162735849 -0.1380910966981132 0.3622641509433963
v -0.1683144162735849 -0.1380910966981132 0.0226415094339623
v -0.1705365566037736 -0.1393197228773585 0.3622641509433963
v -0.1705365566037736 -0.1393197228773585 0.0226415094339623
v -0.1726072376179245 -0.1407886202830189 0.3622641509433963
v -0.1726072376179245 -0.1407886202830189 0.0226415094339623
v -0.1745004790683962 -0.1424808372641510 0.3622641509433963
v -0.1745004790683962 -0.1424808372641510 0.0226415094339623
v -0.1761923275353774 -0.1443735259433963 0.3622641509433963
v -0.1761923275353774 -0.1443735259433963 0.0226415094339623
v -0.1776615934551887 -0.1464445754716981 0.3622641509433963
v -0.1776615934551887 -0.1464445754716981 0.0226415094339623
v -0.1788898511202830 -0.1486667158018868 0.3622641509433963
v -0.1788898511202830 -0.1486667158018868 0.0226415094339623
v -0.1798614386792453 -0.1510126768867925 0.3622641509433963
v -0.1798614386792453 -0.1510126768867925 0.0226415094339623
v -0.1805643794221698 -0.1534522405660378 0.3622641509433963
v -0.1805643794221698 -0.1534522405660378 0.0226415094339623
v -0.1809896447523585 -0.1559551886792453 0.3622641509433963
v -0.1809896447523585 -0.1559551886792453 0.0226415094339623
v -0.1811320754716981 -0.1584905660377359 0.3622641509433963
v -0.1811320754716981 -0.1584905660377359 0.0226415094339623
v 0.1610255748820755 -0.1359913030660377 0.3622641509433963
v 0.1610255748820755 -0.1359913030660377 0.0226415094339623
v 0.1635288915094340 -0.1364165683962264 0.3622641509433963
v 0.1635288915094340 -0.1364165683962264 0.0226415094339623
v 0.1659684551886793 -0.1371196933962264 0.3622641509433963
v 0.1659684551886793 -0.1371196933962264 0.0226415094339623
v 0.1683144162735849 -0.1380910966981132 0.3622641509433963
v 0.1683144162735849 -0.1380910966981132 0.0226415094339623
v 0.1705365566037736 -0.1393197228773585 0.3622641509433963
v 0.1705365566037736 -0.1393197228773585 0.0226415094339623
v 0.1726072376179245 -0.1407886202830189 0.3622641509433963
v 0.1726072376179245 -0.1407886202830189 0.0226415094339623
v 0.1745006633254717 -0.1424808372641510 0.3622641509433963
v 0.1745006633254717 -0.1424808372641510 0.0226415094339623
v 0.1761925117924528 -0.1443735259433963 0.3622641509433963
v 0.1761925117924528 -0.1443735259433963 0.0226415094339623
v 0.1776617777122642 -0.1464445754716981 0.3622641509433963
v 0.1776617777122642 -0.1464445754716981 0.0226415094339623
v 0.1788900353773585 -0.1486667158018868 0.3622641509433963
v 0.1788900353773585 -0.1486667158018868 0.0226415094339623
v 0.1798614386792453 -0.1510126768867925 0.3622641509433963
v 0.1798614386792453 -0.1510126768867925 0.0226415094339623
v 0.1805645636792453 -0.1534522405660378 0.3622641509433963
v 0.1805645636792453 -0.1534522405660378 0.0226415094339623
v 0.1809898290094340 -0.1559551886792453 0.3622641509433963
v 0.1809898290094340 -0.1559551886792453 0.0226415094339623
v 0.1811320754716981 -0.1584905660377359 0.3622641509433963
v 0.1811320754716981 -0.1584905660377359 0.0226415094339623
v 0.1584905660377359 0.1660377358490566 0.0226415094339623
v -0.1584905660377359 0.1660377358490566 0.0226415094339623
v -0.1584905660377359 -0.1886792452830189 0.4000000000000000
v 0.1584905660377359 -0.1886792452830189 0.4000000000000000
v -0.1683144162735849 -0.1656869103773585 0.3968679061025944
v -0.1683144162735849 -0.1682945165094340 0.3973613465507076
v -0.1659686394457547 -0.1654709610849057 0.3978151717275944
v -0.1745004790683962 -0.1455608785377359 0.3757597840507076
v -0.1745004790683962 -0.1466479952830189 0.3778162772700472
v -0.1726072376179245 -0.1440367040094340 0.3764938642393869
v -0.1745004790683962 -0.1622214033018868 0.3912183077830189
v -0.1745004790683962 -0.1644170106132076 0.3919865676591981
v -0.1726072376179245 -0.1616030365566038 0.3927932451356133
v -0.1635287072523585 -0.1445253537735849 0.3854381633254718
v -0.1659686394457547 -0.1468536261792453 0.3870668116155661
v -0.1635287072523585 -0.1463384433962264 0.3875449587264151
v -0.1659686394457547 -0.1450751768867925 0.3849999078714623
v -0.1726072376179245 -0.1639180424528302 0.3936033313679246
v -0.1776615934551887 -0.1476503537735849 0.3702639482606133
v -0.1788898511202830 -0.1503891509433962 0.3713677402712264
v -0.1776615934551887 -0.1483203125000000 0.3721796690742925
v -0.1788898511202830 -0.1611261792452830 0.3838438789799529
v -0.1788898511202830 -0.1627734375000000 0.3847145857900944
v -0.1776615934551887 -0.1600147405660378 0.3857683520047170
v -0.1776615934551887 -0.1618094044811321 0.3867167231721699
v -0.1788898511202830 -0.1497737323113208 0.3696089143573114
v -0.1805643794221698 -0.1536770341981132 0.3652647774174529
v -0.1809896447523585 -0.1563974056603774 0.3661870762087264
v -0.1805643794221698 -0.1539571049528302 0.3667440853478774
v -0.1635287072523585 -0.1680454009433962 0.3990171727594340
v -0.1659686394457547 -0.1708601120283019 0.3986274690448113
v -0.1635287072523585 -0.1708070459905661 0.3993283829599057
v -0.1811320754716981 -0.1590050117924529 0.3661708615860849
v -0.1811320754716981 -0.1586195459905660 0.3642343197228774
v -0.1659686394457547 -0.1681500589622642 0.3983221550707547
v -0.1809896447523585 -0.1561527122641510 0.3648916568396227
v -0.1635287072523585 -0.1735849056603774 0.3994323039504717
v -0.1659686394457547 -0.1735849056603774 0.3987294553360849
v -0.1705365566037736 -0.1439099351415095 0.3793968344634434
v -0.1726072376179245 -0.1464873231132076 0.3807388708726415
v -0.1705365566037736 -0.1452734375000000 0.3815665536556604
v -0.1811320754716981 -0.1643963738207547 0.3742392946639151
v -0.1809896447523585 -0.1636541863207547 0.3768302255306604
v -0.1809896447523585 -0.1625928655660377 0.3760473172169811
v -0.1805643794221698 -0.1610325766509434 0.3780044037441038
v -0.1805643794221698 -0.1622435141509434 0.3788984190742925
v -0.1811320754716981 -0.1660377358490566 0.3753362691627359
v -0.1726072376179245 -0.1451827830188679 0.3786622015035378
v -0.1705365566037736 -0.1634846698113208 0.3950072781544812
v -0.1726072376179245 -0.1662868514150944 0.3942380969929246
v -0.1705365566037736 -0.1659603478773585 0.3956705114976415
v -0.1776615934551887 -0.1491325176886793 0.3740399285082547
v -0.1761923275353774 -0.1463929834905661 0.3729361364976416
v -0.1761923275353774 -0.1472663620283019 0.3749383660082548
v -0.1761923275353774 -0.1609109669811321 0.3885824181898585
v -0.1776615934551887 -0.1636696639150944 0.3875283755896227
v -0.1761923275353774 -0.1629127358490566 0.3894559809846698
v -0.1610255748820755 -0.1460266804245283 0.3878342423349057
v -0.1635287072523585 -0.1483040978773585 0.3895103368219340
v -0.1610255748820755 -0.1480151827830189 0.3898220997936321
v -0.1805643794221698 -0.1543469929245283 0.3681983343160378
v -0.1798614386792453 -0.1515787146226415 0.3672869988207548
v -0.1798614386792453 -0.1608696933962264 0.3809142836084906
v -0.1805643794221698 -0.1635185731132076 0.3796994767099057
v -0.1798614386792453 -0.1622987912735849 0.3818123525943397
v -0.1798614386792453 -0.1520150353773585 0.3689174896816038
v -0.1705365566037736 -0.1467954009433962 0.3836282982016510
v -0.1683144162735849 -0.1442585495283019 0.3822584389740566
v -0.1683144162735849 -0.1458350530660378 0.3843940706073113
v -0.1705365566037736 -0.1684780365566038 0.3961469081662736
v -0.1761923275353774 -0.1649749410377359 0.3901774395636793
v -0.1761923275353774 -0.1482871462264151 0.3768696565448114
v -0.1610255748820755 -0.1501459316037736 0.3916559183372642
v -0.1798614386792453 -0.1525729658018868 0.3705107606132076
v -0.1798614386792453 -0.1637912735849057 0.3826011571344340
v -0.1683144162735849 -0.1709323408018868 0.3976585532134435
v -0.1683144162735849 -0.1735849056603774 0.3977577756485849
v -0.1683144162735849 -0.1475663325471698 0.3864059736143868
v -0.1745004790683962 -0.1666634728773585 0.3925886276533019
v -0.1745004790683962 -0.1478854658018868 0.3797858011497642
v -0.1788898511202830 -0.1644811320754717 0.3854598135318397
v -0.1659686394457547 -0.1487824292452830 0.3889950619103774
v -0.1809896447523585 -0.1647700471698113 0.3775316000884434
v -0.1726072376179245 -0.1686969339622642 0.3946940411261793
v -0.1788898511202830 -0.1511342865566038 0.3730757112323114
v -0.1811320754716981 -0.1596395931603774 0.3680405181308963
v -0.1809896447523585 -0.1567386497641509 0.3674604768573114
v -0.1776615934551887 -0.1655852004716981 0.3881987028301887
v -0.1726072376179245 -0.1479436910377359 0.3827122641509434
v -0.1805643794221698 -0.1648496462264151 0.3804029702240566
v -0.1776615934551887 -0.1500803360849057 0.3758343160377359
v -0.1705365566037736 -0.1710244693396226 0.3964337964327830
v -0.1705365566037736 -0.1735849056603774 0.3965296101120284
v -0.1761923275353774 -0.1670850530660377 0.3907428323997642
v -0.1635287072523585 -0.1504112617924528 0.3913234264445755
v -0.1805643794221698 -0.1548437500000000 0.3696194170106132
v -0.1798614386792453 -0.1653382959905660 0.3832761829304246
v -0.1705365566037736 -0.1484662441037736 0.3855705520341982
v -0.1761923275353774 -0.1494494398584906 0.3787193211969340
v -0.1745004790683962 -0.1689489976415094 0.3930210790094340
v -0.1610255748820755 -0.1524078714622642 0.3933253795695755
v -0.1788898511202830 -0.1662404186320755 0.3860752321639151
v -0.1809896447523585 -0.1659360259433962 0.3781476636202831
v -0.1811320754716981 -0.1678088148584906 0.3762094634433963
v -0.1798614386792453 -0.1532480837264151 0.3720579672759434
v -0.1726072376179245 -0.1711342865566038 0.3949686762971699
v -0.1726072376179245 -0.1735849056603774 0.3950603441922170
v -0.1683144162735849 -0.1494428066037736 0.3882828161851415
v -0.1776615934551887 -0.1675456957547170 0.3887240197523585
v -0.1745004790683962 -0.1492666568396226 0.3816573923938680
v -0.1788898511202830 -0.1520054540094340 0.3747232458726416
v -0.1805643794221698 -0.1662293632075472 0.3810050302181604
v -0.1659686394457547 -0.1508490566037736 0.3907738797169812
v -0.1761923275353774 -0.1692312794811321 0.3911489349941038
v -0.1798614386792453 -0.1669317511792453 0.3838336527122642
v -0.1809896447523585 -0.1571742334905661 0.3687048570165095
v -0.1745004790683962 -0.1712603183962264 0.3932815263856133
v -0.1726072376179245 -0.1495437794811321 0.3845712337853774
v -0.1745004790683962 -0.1735849056603774 0.3933684957252359
v -0.1788898511202830 -0.1680402417452830 0.3865575250589623
v -0.1776615934551887 -0.1511608195754717 0.3775528817806604
v -0.1635287072523585 -0.1526474056603774 0.3929739091981133
v -0.1809896447523585 -0.1671440153301887 0.3786749152417453
v -0.1776615934551887 -0.1695400943396227 0.3891013782429246
v -0.1805643794221698 -0.1554459021226415 0.3709993182488208
v -0.1705365566037736 -0.1502785966981132 0.3873825361143868
v -0.1805643794221698 -0.1676510908018868 0.3815022479363208
v -0.1761923275353774 -0.1714018278301887 0.3913935362617925
v -0.1761923275353774 -0.1735849056603774 0.3914752542747642
v -0.1610255748820755 -0.1547884728773585 0.3948210863797170
v -0.1798614386792453 -0.1685620577830189 0.3842705262382076
v -0.1761923275353774 -0.1507466096698113 0.3804769494398585
v -0.1788898511202830 -0.1698710200471698 0.3869039283608491
v -0.1798614386792453 -0.1540367040094340 0.3735503574587264
v -0.1683144162735849 -0.1514548938679245 0.3900141877948113
v -0.1809896447523585 -0.1683888561320755 0.3791103147110849
v -0.1811320754716981 -0.1696779186320755 0.3768441369398585
v -0.1776615934551887 -0.1715566037735849 0.3893285672169812
v -0.1776615934551887 -0.1735849056603774 0.3894044811320755
v -0.1745004790683962 -0.1507841981132076 0.3834204562205189
v -0.1805643794221698 -0.1691052476415094 0.3818919516509434
v -0.1659686394457547 -0.1530431898584906 0.3923932230247642
v -0.1798614386792453 -0.1702203714622642 0.3845844081662736
v -0.1788898511202830 -0.1529967570754717 0.3763010392099057
v -0.1788898511202830 -0.1717224351415094 0.3871125994988208
v -0.1788898511202830 -0.1735849056603774 0.3871822486733491
v -0.1798614386792453 -0.1735849056603774 0.3848364718455189
v -0.1809896447523585 -0.1696617040094340 0.3794515588148585
v -0.1726072376179245 -0.1512780070754717 0.3863054613797170
v -0.1811320754716981 -0.1716148290094340 0.3772293263561321
v -0.1811320754716981 -0.1605129716981132 0.3698113207547170
v -0.1809896447523585 -0.1577012087264151 0.3699132149174529
v -0.1805643794221698 -0.1705844634433963 0.3821718381485850
v -0.1610255748820755 -0.1360966981132076 0.3650735185731133
v -0.1798614386792453 -0.1718978478773585 0.3847733637971699
v -0.1635287072523585 -0.1365204893867925 0.3650417342275944
v -0.1805643794221698 -0.1735849056603774 0.3823967239091982
v -0.1635287072523585 -0.1550007370283019 0.3944527564858491
v -0.1809896447523585 -0.1709573997641509 0.3796966207252359
v -0.1776615934551887 -0.1523658608490566 0.3791858601120283
v -0.1610255748820755 -0.1364114091981132 0.3678671322228774
v -0.1805643794221698 -0.1720806308962264 0.3823404333726416
v -0.1805643794221698 -0.1561497641509434 0.3723303913620283
v -0.1811320754716981 -0.1735849056603774 0.3773584905660378
v -0.1809896447523585 -0.1722670990566038 0.3798442106426887
v -0.1659686394457547 -0.1372214033018868 0.3649892209610849
v -0.1809896447523585 -0.1735849056603774 0.3798934994103774
v -0.1705365566037736 -0.1522206662735849 0.3890539320459906
v -0.1761923275353774 -0.1521720224056604 0.3821327756485849
v -0.1635287072523585 -0.1368315153301887 0.3678037477889151
v -0.1610255748820755 -0.1572737323113208 0.3961347471992925
v -0.1610255748820755 -0.1369339622641509 0.3706295142983491
v -0.1683144162735849 -0.1381905955188679 0.3649166236733491
v -0.1798614386792453 -0.1549344044811321 0.3749796395931604
v -0.1683144162735849 -0.1535908018867925 0.3915903228183963
v -0.1745004790683962 -0.1524285082547170 0.3850652270047170
v -0.1659686394457547 -0.1375272700471698 0.3676989976415095
v -0.1635287072523585 -0.1373489091981132 0.3705348061615567
v -0.1705365566037736 -0.1394155365566038 0.3648247715212264
v -0.1659686394457547 -0.1553522995283019 0.3938439711084906
v -0.1788898511202830 -0.1541030365566038 0.3778003390330189
v -0.1726072376179245 -0.1531367924528302 0.3879052734375000
v -0.1610255748820755 -0.1376614091981132 0.3733450029481132
v -0.1809896447523585 -0.1583173643867925 0.3710788251768868
v -0.1635287072523585 -0.1574579893867925 0.3957514924823113
v -0.1683144162735849 -0.1384876179245283 0.3675541715801887
v -0.1776615934551887 -0.1536895636792453 0.3807243145636793
v -0.1659686394457547 -0.1380336084905661 0.3703784640330189
v -0.1726072376179245 -0.1408807488207547 0.3647150464327831
v -0.1705365566037736 -0.1542821344339623 0.3905756191037736
v -0.1805643794221698 -0.1569509139150944 0.3736051739386793
v -0.1635287072523585 -0.1380682488207547 0.3732197081367925
v -0.1705365566037736 -0.1397022405660377 0.3673711121757076
v -0.1761923275353774 -0.1537160966981132 0.3836774027122642
v -0.1610255748820755 -0.1598503832547170 0.3972588996167453
v -0.1610255748820755 -0.1385900648584906 0.3759985812205189
v -0.1683144162735849 -0.1558380011792453 0.3930025611733491
v -0.1683144162735849 -0.1389814268867925 0.3701622383549529
v -0.1745004790683962 -0.1425678066037736 0.3645885539504717
v -0.1798614386792453 -0.1559367629716981 0.3763377984964623
v -0.1745004790683962 -0.1541914799528302 0.3865824918926887
v -0.1659686394457547 -0.1387396816037736 0.3730125110554245
v -0.1659686394457547 -0.1577631191037736 0.3951182009139151
v -0.1726072376179245 -0.1411549233490566 0.3671521226415095
v -0.1788898511202830 -0.1553183962264151 0.3792127616450472
v -0.1635287072523585 -0.1389858490566038 0.3758432525058963
v -0.1809896447523585 -0.1590190153301887 0.3721951466686321
v -0.1811320754716981 -0.1616096698113208 0.3714529591686321
v -0.1705365566037736 -0.1401783608490566 0.3698888929834906
v -0.1726072376179245 -0.1551098172169811 0.3893616413620283
v -0.1761923275353774 -0.1444553360849057 0.3644471366450472
v -0.1776615934551887 -0.1551245577830189 0.3821594007959906
v -0.1610255748820755 -0.1397140330188680 0.3785753242924529
v -0.1635287072523585 -0.1600058962264151 0.3968630232900944
v -0.1683144162735849 -0.1396683372641510 0.3727260834316038
v -0.1705365566037736 -0.1564519457547170 0.3919389372051887
v -0.1745004790683962 -0.1428279775943396 0.3668999668337264
v -0.1805643794221698 -0.1578449292452830 0.3748165720813680
v -0.1659686394457547 -0.1396403301886792 0.3755863981426887
v -0.1761923275353774 -0.1553721992924529 0.3851022626768869
v -0.1726072376179245 -0.1416111438679245 0.3695620209316038
v -0.1610255748820755 -0.1625036851415095 0.3981874631485849
v -0.1776615934551887 -0.1465204893867925 0.3642923607016510
v -0.1798614386792453 -0.1570378832547170 0.3776172796285377
v -0.1635287072523585 -0.1400972877358491 0.3783907908313680
v -0.1683144162735849 -0.1581846992924529 0.3942427955483491
v -0.1745004790683962 -0.1560635318396227 0.3879637750589623
v -0.1705365566037736 -0.1408416863207547 0.3723641104068396
v -0.1761923275353774 -0.1447000294811321 0.3666178692511793
v -0.1788898511202830 -0.1566362028301887 0.3805303839917453
v -0.1610255748820755 -0.1410281544811321 0.3810608601120283
v -0.1659686394457547 -0.1602623820754717 0.3962087264150944
v -0.1683144162735849 -0.1405446639150943 0.3752314268867925
v -0.1726072376179245 -0.1571867629716981 0.3906664578419812
v -0.1745004790683962 -0.1432606132075472 0.3691854915978774
v -0.1659686394457547 -0.1407311320754717 0.3780858453714623
v -0.1809896447523585 -0.1598017393867925 0.3732559146521227
v -0.1776615934551887 -0.1566634728773585 0.3834832878832548
v -0.1788898511202830 -0.1487367334905660 0.3641262529481132
v -0.1635287072523585 -0.1626297169811321 0.3977810841686321
v -0.1726072376179245 -0.1422457252358491 0.3719310141509434
v -0.1776615934551887 -0.1467474941037736 0.3663092386497642
v -0.1805643794221698 -0.1588266509433962 0.3759577682783019
v -0.1635287072523585 -0.1413966686320755 0.3808482274469340
v -0.1705365566037736 -0.1587175707547170 0.3931362396816038
v -0.1705365566037736 -0.1416877948113208 0.3747827609080189
v -0.1761923275353774 -0.1571300117924528 0.3863995246167453
v -0.1610255748820755 -0.1652196344339623 0.3989150943396227
v -0.1761923275353774 -0.1451061320754717 0.3687641877948113
v -0.1610255748820755 -0.1425235849056604 0.3834412772700472
v -0.1798614386792453 -0.1582318691037736 0.3788108969634434
v -0.1798614386792453 -0.1510753242924529 0.3639510244693396
v -0.1683144162735849 -0.1606176297169812 0.3953042084316038
v -0.1745004790683962 -0.1580328714622642 0.3892012455778302
v -0.1683144162735849 -0.1416059846698113 0.3776642651827831
v -0.1745004790683962 -0.1438627653301887 0.3714323223761793
v -0.1788898511202830 -0.1580483490566038 0.3817459279186321
v -0.1659686394457547 -0.1628368219339623 0.3971093750000000
v -0.1788898511202830 -0.1489453125000000 0.3659780365566038
v -0.1659686394457547 -0.1420047169811321 0.3804967570754718
v -0.1809896447523585 -0.1606618514150943 0.3742551407724057
v -0.1811320754716981 -0.1629112617924529 0.3729374262971699
v -0.1726072376179245 -0.1593551002358491 0.3918125368514151
v -0.1726072376179245 -0.1430557193396227 0.3742459279186321
v -0.1776615934551887 -0.1471248525943396 0.3683034529775944
v -0.1776615934551887 -0.1582959905660377 0.3846886055424529
v -0.1635287072523585 -0.1428751474056604 0.3832017430719340
v -0.1635287072523585 -0.1653139740566038 0.3985004237912736
v -0.1805643794221698 -0.1535089917452830 0.3637687020931604
v -0.1805643794221698 -0.1598916568396227 0.3770223135318397
v -0.1705365566037736 -0.1427130011792453 0.3771313937205189
v -0.1705365566037736 -0.1610664799528302 0.3941609854068396
v -0.1761923275353774 -0.1456714327830189 0.3708742998231133
v -0.1610255748820755 -0.1441929540094340 0.3857033092570755
v -0.1761923275353774 -0.1589792158018868 0.3875617261202831
v -0.1610255748820755 -0.1679820165094340 0.3994377395341981
v -0.1683144162735849 -0.1428464033018868 0.3800109632959906
v -0.1798614386792453 -0.1595113502358491 0.3799119251179245
v -0.1798614386792453 -0.1512647405660378 0.3656284087558963
v -0.1683144162735849 -0.1631227889150944 0.3961809035966982
v -0.1745004790683962 -0.1446307488207547 0.3736278375589623
v -0.1745004790683962 -0.1600891804245283 0.3902881780660378
v -0.1659686394457547 -0.1434559257075472 0.3828057746167453
v -0.1788898511202830 -0.1595482016509434 0.3828524837853774
v -0.1788898511202830 -0.1492917158018868 0.3678089991155661
v -0.1809896447523585 -0.1560045695754717 0.3635815890330189
v -0.1809896447523585 -0.1615941922169812 0.3751873894457547
v -0.1610255748820755 -0.1707753537735849 0.3997525427476415
v -0.1610255748820755 -0.1735849056603774 0.3998576614091982
v 0.1683144162735849 -0.1682945165094340 0.3973613465507076
v 0.1683144162735849 -0.1656869103773585 0.3968679061025944
v 0.1659684551886793 -0.1654709610849057 0.3978151717275944
v 0.1745006633254717 -0.1466479952830189 0.3778162772700472
v 0.1745006633254717 -0.1455608785377359 0.3757597840507076
v 0.1726072376179245 -0.1440367040094340 0.3764938642393869
v 0.1745006633254717 -0.1644170106132076 0.3919865676591981
v 0.1745006633254717 -0.1622214033018868 0.3912183077830189
v 0.1726072376179245 -0.1616030365566038 0.3927932451356133
v 0.1659684551886793 -0.1468536261792453 0.3870668116155661
v 0.1635288915094340 -0.1445253537735849 0.3854381633254718
v 0.1635288915094340 -0.1463384433962264 0.3875449587264151
v 0.1659684551886793 -0.1450751768867925 0.3849999078714623
v 0.1726072376179245 -0.1639180424528302 0.3936033313679246
v 0.1788900353773585 -0.1503891509433962 0.3713677402712264
v 0.1776617777122642 -0.1476503537735849 0.3702639482606133
v 0.1776617777122642 -0.1483203125000000 0.3721796690742925
v 0.1788900353773585 -0.1627734375000000 0.3847145857900944
v 0.1788900353773585 -0.1611261792452830 0.3838438789799529
v 0.1776617777122642 -0.1600147405660378 0.3857683520047170
v 0.1776617777122642 -0.1618094044811321 0.3867167231721699
v 0.1788900353773585 -0.1497737323113208 0.3696089143573114
v 0.1809898290094340 -0.1563974056603774 0.3661870762087264
v 0.1805645636792453 -0.1536770341981132 0.3652647774174529
v 0.1805645636792453 -0.1539571049528302 0.3667440853478774
v 0.1659684551886793 -0.1708601120283019 0.3986274690448113
v 0.1635288915094340 -0.1680454009433962 0.3990171727594340
v 0.1635288915094340 -0.1708070459905661 0.3993283829599057
v 0.1811320754716981 -0.1590050117924529 0.3661708615860849
v 0.1811320754716981 -0.1586195459905660 0.3642343197228774
v 0.1659684551886793 -0.1681500589622642 0.3983221550707547
v 0.1809898290094340 -0.1561527122641510 0.3648916568396227
v 0.1635288915094340 -0.1735849056603774 0.3994323039504717
v 0.1659684551886793 -0.1735849056603774 0.3987294553360849
v 0.1726072376179245 -0.1464873231132076 0.3807388708726415
v 0.1705365566037736 -0.1439099351415095 0.3793968344634434
v 0.1705365566037736 -0.1452734375000000 0.3815665536556604
v 0.1809898290094340 -0.1636541863207547 0.3768302255306604
v 0.1811320754716981 -0.1643963738207547 0.3742392946639151
v 0.1809898290094340 -0.1625928655660377 0.3760473172169811
v 0.1805645636792453 -0.1610325766509434 0.3780044037441038
v 0.1805645636792453 -0.1622435141509434 0.3788984190742925
v 0.1811320754716981 -0.1660377358490566 0.3753362691627359
v 0.1726072376179245 -0.1451827830188679 0.3786622015035378
v 0.1726072376179245 -0.1662868514150944 0.3942380969929246
v 0.1705365566037736 -0.1634846698113208 0.3950072781544812
v 0.1705365566037736 -0.1659603478773585 0.3956705114976415
v 0.1776617777122642 -0.1491325176886793 0.3740399285082547
v 0.1761925117924528 -0.1463929834905661 0.3729361364976416
v 0.1761925117924528 -0.1472663620283019 0.3749383660082548
v 0.1776617777122642 -0.1636696639150944 0.3875283755896227
v 0.1761925117924528 -0.1609109669811321 0.3885824181898585
v 0.1761925117924528 -0.1629127358490566 0.3894559809846698
v 0.1635288915094340 -0.1483040978773585 0.3895103368219340
v 0.1610255748820755 -0.1460266804245283 0.3878342423349057
v 0.1610255748820755 -0.1480151827830189 0.3898220997936321
v 0.1805645636792453 -0.1543469929245283 0.3681983343160378
v 0.1798614386792453 -0.1515787146226415 0.3672869988207548
v 0.1805645636792453 -0.1635185731132076 0.3796994767099057
v 0.1798614386792453 -0.1608696933962264 0.3809142836084906
v 0.1798614386792453 -0.1622987912735849 0.3818123525943397
v 0.1798614386792453 -0.1520150353773585 0.3689174896816038
v 0.1705365566037736 -0.1467954009433962 0.3836282982016510
v 0.1683144162735849 -0.1442585495283019 0.3822584389740566
v 0.1683144162735849 -0.1458350530660378 0.3843940706073113
v 0.1705365566037736 -0.1684780365566038 0.3961469081662736
v 0.1761925117924528 -0.1649749410377359 0.3901774395636793
v 0.1761925117924528 -0.1482871462264151 0.3768696565448114
v 0.1610255748820755 -0.1501459316037736 0.3916559183372642
v 0.1798614386792453 -0.1525729658018868 0.3705107606132076
v 0.1798614386792453 -0.1637912735849057 0.3826011571344340
v 0.1683144162735849 -0.1709323408018868 0.3976585532134435
v 0.1683144162735849 -0.1735849056603774 0.3977577756485849
v 0.1683144162735849 -0.1475663325471698 0.3864059736143868
v 0.1745006633254717 -0.1666634728773585 0.3925886276533019
v 0.1745006633254717 -0.1478854658018868 0.3797858011497642
v 0.1788900353773585 -0.1644811320754717 0.3854598135318397
v 0.1659684551886793 -0.1487824292452830 0.3889950619103774
v 0.1809898290094340 -0.1647700471698113 0.3775316000884434
v 0.1726072376179245 -0.1686969339622642 0.3946940411261793
v 0.1788900353773585 -0.1511342865566038 0.3730757112323114
v 0.1809898290094340 -0.1567386497641509 0.3674604768573114
v 0.1811320754716981 -0.1596395931603774 0.3680405181308963
v 0.1776617777122642 -0.1655852004716981 0.3881987028301887
v 0.1726072376179245 -0.1479436910377359 0.3827122641509434
v 0.1805645636792453 -0.1648496462264151 0.3804029702240566
v 0.1776617777122642 -0.1500803360849057 0.3758343160377359
v 0.1705365566037736 -0.1710244693396226 0.3964337964327830
v 0.1705365566037736 -0.1735849056603774 0.3965296101120284
v 0.1761925117924528 -0.1670850530660377 0.3907428323997642
v 0.1635288915094340 -0.1504112617924528 0.3913234264445755
v 0.1805645636792453 -0.1548437500000000 0.3696194170106132
v 0.1798614386792453 -0.1653382959905660 0.3832761829304246
v 0.1705365566037736 -0.1484662441037736 0.3855705520341982
v 0.1761925117924528 -0.1494494398584906 0.3787193211969340
v 0.1745006633254717 -0.1689489976415094 0.3930210790094340
v 0.1610255748820755 -0.1524078714622642 0.3933253795695755
v 0.1788900353773585 -0.1662404186320755 0.3860752321639151
v 0.1809898290094340 -0.1659360259433962 0.3781476636202831
v 0.1811320754716981 -0.1678088148584906 0.3762094634433963
v 0.1798614386792453 -0.1532480837264151 0.3720579672759434
v 0.1726072376179245 -0.1711342865566038 0.3949686762971699
v 0.1726072376179245 -0.1735849056603774 0.3950603441922170
v 0.1683144162735849 -0.1494428066037736 0.3882828161851415
v 0.1776617777122642 -0.1675456957547170 0.3887240197523585
v 0.1745006633254717 -0.1492666568396226 0.3816573923938680
v 0.1788900353773585 -0.1520054540094340 0.3747232458726416
v 0.1805645636792453 -0.1662293632075472 0.3810050302181604
v 0.1659684551886793 -0.1508490566037736 0.3907738797169812
v 0.1761925117924528 -0.1692312794811321 0.3911489349941038
v 0.1798614386792453 -0.1669317511792453 0.3838336527122642
v 0.1809898290094340 -0.1571742334905661 0.3687048570165095
v 0.1745006633254717 -0.1712603183962264 0.3932815263856133
v 0.1726072376179245 -0.1495437794811321 0.3845712337853774
v 0.1745006633254717 -0.1735849056603774 0.3933684957252359
v 0.1788900353773585 -0.1680402417452830 0.3865575250589623
v 0.1776617777122642 -0.1511608195754717 0.3775528817806604
v 0.1635288915094340 -0.1526474056603774 0.3929739091981133
v 0.1809898290094340 -0.1671440153301887 0.3786749152417453
v 0.1776617777122642 -0.1695400943396227 0.3891013782429246
v 0.1805645636792453 -0.1554459021226415 0.3709993182488208
v 0.1705365566037736 -0.1502785966981132 0.3873825361143868
v 0.1805645636792453 -0.1676510908018868 0.3815022479363208
v 0.1761925117924528 -0.1714018278301887 0.3913935362617925
v 0.1761925117924528 -0.1735849056603774 0.3914752542747642
v 0.1610255748820755 -0.1547884728773585 0.3948210863797170
v 0.1798614386792453 -0.1685620577830189 0.3842705262382076
v 0.1761925117924528 -0.1507466096698113 0.3804769494398585
v 0.1788900353773585 -0.1698710200471698 0.3869039283608491
v 0.1798614386792453 -0.1540367040094340 0.3735503574587264
v 0.1683144162735849 -0.1514548938679245 0.3900141877948113
v 0.1809898290094340 -0.1683888561320755 0.3791103147110849
v 0.1811320754716981 -0.1696779186320755 0.3768441369398585
v 0.1776617777122642 -0.1715566037735849 0.3893285672169812
v 0.1776617777122642 -0.1735849056603774 0.3894044811320755
v 0.1745006633254717 -0.1507841981132076 0.3834204562205189
v 0.1805645636792453 -0.1691052476415094 0.3818919516509434
v 0.1659684551886793 -0.1530431898584906 0.3923932230247642
v 0.1798614386792453 -0.1702203714622642 0.3845844081662736
v 0.1788900353773585 -0.1529967570754717 0.3763010392099057
v 0.1788900353773585 -0.1717224351415094 0.3871125994988208
v 0.1788900353773585 -0.1735849056603774 0.3871822486733491
v 0.1798614386792453 -0.1735849056603774 0.3848364718455189
v 0.1809898290094340 -0.1696617040094340 0.3794515588148585
v 0.1726072376179245 -0.1512780070754717 0.3863054613797170
v 0.1811320754716981 -0.1716148290094340 0.3772293263561321
v 0.1809898290094340 -0.1577012087264151 0.3699132149174529
v 0.1811320754716981 -0.1605129716981132 0.3698113207547170
v 0.1805645636792453 -0.1705844634433963 0.3821718381485850
v 0.1610255748820755 -0.1360966981132076 0.3650735185731133
v 0.1798614386792453 -0.1718978478773585 0.3847733637971699
v 0.1635288915094340 -0.1365204893867925 0.3650417342275944
v 0.1805645636792453 -0.1735849056603774 0.3823967239091982
v 0.1635288915094340 -0.1550007370283019 0.3944527564858491
v 0.1809898290094340 -0.1709573997641509 0.3796966207252359
v 0.1776617777122642 -0.1523658608490566 0.3791858601120283
v 0.1610255748820755 -0.1364114091981132 0.3678671322228774
v 0.1805645636792453 -0.1720806308962264 0.3823404333726416
v 0.1805645636792453 -0.1561497641509434 0.3723303913620283
v 0.1809898290094340 -0.1722670990566038 0.3798442106426887
v 0.1811320754716981 -0.1735849056603774 0.3773584905660378
v 0.1659684551886793 -0.1372214033018868 0.3649892209610849
v 0.1809898290094340 -0.1735849056603774 0.3798934994103774
v 0.1705365566037736 -0.1522206662735849 0.3890539320459906
v 0.1761925117924528 -0.1521720224056604 0.3821327756485849
v 0.1635288915094340 -0.1368315153301887 0.3678037477889151
v 0.1610255748820755 -0.1572737323113208 0.3961347471992925
v 0.1610255748820755 -0.1369339622641509 0.3706295142983491
v 0.1683144162735849 -0.1381905955188679 0.3649166236733491
v 0.1798614386792453 -0.1549344044811321 0.3749796395931604
v 0.1683144162735849 -0.1535908018867925 0.3915903228183963
v 0.1745006633254717 -0.1524285082547170 0.3850652270047170
v 0.1659684551886793 -0.1375272700471698 0.3676989976415095
v 0.1635288915094340 -0.1373489091981132 0.3705348061615567
v 0.1705365566037736 -0.1394155365566038 0.3648247715212264
v 0.1659684551886793 -0.1553522995283019 0.3938439711084906
v 0.1788900353773585 -0.1541030365566038 0.3778003390330189
v 0.1726072376179245 -0.1531367924528302 0.3879052734375000
v 0.1610255748820755 -0.1376614091981132 0.3733450029481132
v 0.1809898290094340 -0.1583173643867925 0.3710788251768868
v 0.1635288915094340 -0.1574579893867925 0.3957514924823113
v 0.1683144162735849 -0.1384876179245283 0.3675541715801887
v 0.1776617777122642 -0.1536895636792453 0.3807243145636793
v 0.1659684551886793 -0.1380336084905661 0.3703784640330189
v 0.1726072376179245 -0.1408807488207547 0.3647150464327831
v 0.1705365566037736 -0.1542821344339623 0.3905756191037736
v 0.1805645636792453 -0.1569509139150944 0.3736051739386793
v 0.1635288915094340 -0.1380682488207547 0.3732197081367925
v 0.1705365566037736 -0.1397022405660377 0.3673711121757076
v 0.1761925117924528 -0.1537160966981132 0.3836774027122642
v 0.1610255748820755 -0.1598503832547170 0.3972588996167453
v 0.1610255748820755 -0.1385900648584906 0.3759985812205189
v 0.1683144162735849 -0.1558380011792453 0.3930025611733491
v 0.1683144162735849 -0.1389814268867925 0.3701622383549529
v 0.1745006633254717 -0.1425678066037736 0.3645885539504717
v 0.1798614386792453 -0.1559367629716981 0.3763377984964623
v 0.1745006633254717 -0.1541914799528302 0.3865824918926887
v 0.1659684551886793 -0.1387396816037736 0.3730125110554245
v 0.1659684551886793 -0.1577631191037736 0.3951182009139151
v 0.1726072376179245 -0.1411549233490566 0.3671521226415095
v 0.1788900353773585 -0.1553183962264151 0.3792127616450472
v 0.1635288915094340 -0.1389858490566038 0.3758432525058963
v 0.1809898290094340 -0.1590190153301887 0.3721951466686321
v 0.1811320754716981 -0.1616096698113208 0.3714529591686321
v 0.1705365566037736 -0.1401783608490566 0.3698888929834906
v 0.1726072376179245 -0.1551098172169811 0.3893616413620283
v 0.1761925117924528 -0.1444553360849057 0.3644471366450472
v 0.1776617777122642 -0.1551245577830189 0.3821594007959906
v 0.1610255748820755 -0.1397140330188680 0.3785753242924529
v 0.1635288915094340 -0.1600058962264151 0.3968630232900944
v 0.1683144162735849 -0.1396683372641510 0.3727260834316038
v 0.1705365566037736 -0.1564519457547170 0.3919389372051887
v 0.1745006633254717 -0.1428279775943396 0.3668999668337264
v 0.1805645636792453 -0.1578449292452830 0.3748165720813680
v 0.1659684551886793 -0.1396403301886792 0.3755863981426887
v 0.1761925117924528 -0.1553721992924529 0.3851022626768869
v 0.1726072376179245 -0.1416111438679245 0.3695620209316038
v 0.1610255748820755 -0.1625036851415095 0.3981874631485849
v 0.1776617777122642 -0.1465204893867925 0.3642923607016510
v 0.1798614386792453 -0.1570378832547170 0.3776172796285377
v 0.1635288915094340 -0.1400972877358491 0.3783907908313680
v 0.1683144162735849 -0.1581846992924529 0.3942427955483491
v 0.1745006633254717 -0.1560635318396227 0.3879637750589623
v 0.1705365566037736 -0.1408416863207547 0.3723641104068396
v 0.1761925117924528 -0.1447000294811321 0.3666178692511793
v 0.1788900353773585 -0.1566362028301887 0.3805303839917453
v 0.1610255748820755 -0.1410281544811321 0.3810608601120283
v 0.1659684551886793 -0.1602623820754717 0.3962087264150944
v 0.1683144162735849 -0.1405446639150943 0.3752314268867925
v 0.1726072376179245 -0.1571867629716981 0.3906664578419812
v 0.1745006633254717 -0.1432606132075472 0.3691854915978774
v 0.1659684551886793 -0.1407311320754717 0.3780858453714623
v 0.1809898290094340 -0.1598017393867925 0.3732559146521227
v 0.1776617777122642 -0.1566634728773585 0.3834832878832548
v 0.1788900353773585 -0.1487367334905660 0.3641262529481132
v 0.1635288915094340 -0.1626297169811321 0.3977810841686321
v 0.1726072376179245 -0.1422457252358491 0.3719310141509434
v 0.1776617777122642 -0.1467474941037736 0.3663092386497642
v 0.1805645636792453 -0.1588266509433962 0.3759577682783019
v 0.1635288915094340 -0.1413966686320755 0.3808482274469340
v 0.1705365566037736 -0.1587175707547170 0.3931362396816038
v 0.1705365566037736 -0.1416877948113208 0.3747827609080189
v 0.1761925117924528 -0.1571300117924528 0.3863995246167453
v 0.1610255748820755 -0.1652196344339623 0.3989150943396227
v 0.1761925117924528 -0.1451061320754717 0.3687641877948113
v 0.1610255748820755 -0.1425235849056604 0.3834412772700472
v 0.1798614386792453 -0.1582318691037736 0.3788108969634434
v 0.1798614386792453 -0.1510753242924529 0.3639510244693396
v 0.1683144162735849 -0.1606176297169812 0.3953042084316038
v 0.1745006633254717 -0.1580328714622642 0.3892012455778302
v 0.1683144162735849 -0.1416059846698113 0.3776642651827831
v 0.1745006633254717 -0.1438627653301887 0.3714323223761793
v 0.1788900353773585 -0.1580483490566038 0.3817459279186321
v 0.1659684551886793 -0.1628368219339623 0.3971093750000000
v 0.1788900353773585 -0.1489453125000000 0.3659780365566038
v 0.1659684551886793 -0.1420047169811321 0.3804967570754718
v 0.1809898290094340 -0.1606618514150943 0.3742551407724057
v 0.1811320754716981 -0.1629112617924529 0.3729374262971699
v 0.1726072376179245 -0.1593551002358491 0.3918125368514151
v 0.1726072376179245 -0.1430557193396227 0.3742459279186321
v 0.1776617777122642 -0.1471248525943396 0.3683034529775944
v 0.1776617777122642 -0.1582959905660377 0.3846886055424529
v 0.1635288915094340 -0.1428751474056604 0.3832017430719340
v 0.1635288915094340 -0.1653139740566038 0.3985004237912736
v 0.1805645636792453 -0.1535089917452830 0.3637687020931604
v 0.1805645636792453 -0.1598916568396227 0.3770223135318397
v 0.1705365566037736 -0.1427130011792453 0.3771313937205189
v 0.1705365566037736 -0.1610664799528302 0.3941609854068396
v 0.1761925117924528 -0.1456714327830189 0.3708742998231133
v 0.1610255748820755 -0.1441929540094340 0.3857033092570755
v 0.1761925117924528 -0.1589792158018868 0.3875617261202831
v 0.1610255748820755 -0.1679820165094340 0.3994377395341981
v 0.1683144162735849 -0.1428464033018868 0.3800109632959906
v 0.1798614386792453 -0.1595113502358491 0.3799119251179245
v 0.1798614386792453 -0.1512647405660378 0.3656284087558963
v 0.1683144162735849 -0.1631227889150944 0.3961809035966982
v 0.1745006633254717 -0.1446307488207547 0.3736278375589623
v 0.1745006633254717 -0.1600891804245283 0.3902881780660378
v 0.1659684551886793 -0.1434559257075472 0.3828057746167453
v 0.1788900353773585 -0.1595482016509434 0.3828524837853774
v 0.1788900353773585 -0.1492917158018868 0.3678089991155661
v 0.1809898290094340 -0.1560045695754717 0.3635815890330189
v 0.1809898290094340 -0.1615941922169812 0.3751873894457547
v 0.1610255748820755 -0.1707753537735849 0.3997525427476415
v 0.1610255748820755 -0.1735849056603774 0.3998576614091982
v -0.1606856205778302 -0.1359559257075472 0.0225348706515330
v -0.1628598540683962 -0.1362743219339623 0.0222159216538915
v -0.1650123452240566 -0.1368086674528302 0.0216818985849057
v -0.1671244840801887 -0.1375596992924528 0.0209306364239387
v -0.1691800560141510 -0.1385311025943396 0.0199593252505896
v -0.1711587927476415 -0.1397250884433962 0.0187657539799528
v -0.1730374778891510 -0.1411401827830189 0.0173501529333726
v -0.1747892099056604 -0.1427749115566038 0.0157159769310142
v -0.1763852446933963 -0.1446189563679245 0.0138714714770047
v -0.1777953640919812 -0.1466597877358491 0.0118304558520047
v -0.1789900869693396 -0.1488775058962264 0.0096128758844340
v -0.1799415905070755 -0.1512455778301887 0.0072448500147406
v -0.1806264740566038 -0.1537323113207547 0.0047584850383255
v -0.1810053066037736 -0.1560981721698113 0.0023926702535377
v -0.1811320754716981 -0.1584905660377359 0.0000000000000000
v -0.1811320754716981 -0.1886792452830189 0.3773584905660378
v -0.1811320754716981 -0.1886792452830189 0.0226415094339623
v 0.1606854363207547 -0.1359559257075472 0.0225348706515330
v 0.1628600383254717 -0.1362743219339623 0.0222159216538915
v 0.1650125294811321 -0.1368086674528302 0.0216818985849057
v 0.1671244840801887 -0.1375596992924528 0.0209306364239387
v 0.1691800560141510 -0.1385311025943396 0.0199593252505896
v 0.1711586084905660 -0.1397250884433962 0.0187657539799528
v 0.1730372936320755 -0.1411401827830189 0.0173501529333726
v 0.1747892099056604 -0.1427749115566038 0.0157159769310142
v 0.1763852446933963 -0.1446189563679245 0.0138714714770047
v 0.1777955483490566 -0.1466597877358491 0.0118304558520047
v 0.1789902712264151 -0.1488775058962264 0.0096128758844340
v 0.1799417747641510 -0.1512455778301887 0.0072448500147406
v 0.1806264740566038 -0.1537323113207547 0.0047584850383255
v 0.1810053066037736 -0.1560981721698113 0.0023926702535377
v 0.1811320754716981 -0.1584905660377359 0.0000000000000000
v 0.1811320754716981 -0.1886792452830189 0.3773584905660378
v 0.1811320754716981 -0.1886792452830189 0.0226415094339623
v 0.1811320754716981 -0.1358490566037736 0.0000000000000000
v 0.1811320754716981 0.1886792452830189 0.0000000000000000
v 0.1810952240566038 0.1886423938679246 0.0012913657134434
v 0.1809846698113208 0.1885318396226415 0.0025785395784198
v 0.1806699587264151 0.1882171285377359 0.0045512418926887
v 0.1801768867924528 0.1877240566037736 0.0065076374557783
v 0.1795017688679245 0.1870489386792453 0.0084361641362028
v 0.1786416568396227 0.1861888266509434 0.0103230026533019
v 0.1775950766509434 0.1851422464622642 0.0121516159345519
v 0.1763609227594340 0.1839077240566038 0.0139030715654481
v 0.1749417747641510 0.1824889445754717 0.0155561799823113
v 0.1733438974056604 0.1808910672169811 0.0170884157576651
v 0.1715768720518868 0.1791244103773585 0.0184765164357311
v 0.1696550707547170 0.1772022405660378 0.0196974959463443
v 0.1675965507075472 0.1751437205188680 0.0207297040831368
v 0.1654237912735849 0.1729709610849057 0.0215538859817217
v 0.1631625884433962 0.1707097582547170 0.0221541955336085
v 0.1608394752358491 0.1683866450471698 0.0225193469929245
v -0.1608392909787736 0.1683866450471698 0.0225193469929245
v -0.1631627727004717 0.1707097582547170 0.0221541955336085
v -0.1654236070165095 0.1729709610849057 0.0215538859817217
v -0.1675965507075472 0.1751437205188680 0.0207297040831368
v -0.1696550707547170 0.1772022405660378 0.0196974959463443
v -0.1715770563089623 0.1791244103773585 0.0184765164357311
v -0.1733438974056604 0.1808910672169811 0.0170884157576651
v -0.1749417747641510 0.1824889445754717 0.0155561799823113
v -0.1763607385023585 0.1839077240566038 0.0139030715654481
v -0.1775948923938679 0.1851422464622642 0.0121516159345519
v -0.1786418410966981 0.1861888266509434 0.0103230026533019
v -0.1795017688679245 0.1870489386792453 0.0084361641362028
v -0.1801767025353774 0.1877240566037736 0.0065076374557783
v -0.1806699587264151 0.1882171285377359 0.0045512418926887
v -0.1809848540683962 0.1885318396226415 0.0025785395784198
v -0.1810952240566038 0.1886423938679246 0.0012913657134434
v -0.1811320754716981 0.1886792452830189 0.0000000000000000
v -0.1811320754716981 -0.1358490566037736 0.0000000000000000
v -0.1610255748820755 -0.1886792452830189 0.3998576614091982
v -0.1635287072523585 -0.1886792452830189 0.3994323039504717
v -0.1659686394457547 -0.1886792452830189 0.3987294553360849
v -0.1683144162735849 -0.1886792452830189 0.3977577756485849
v -0.1705365566037736 -0.1886792452830189 0.3965296101120284
v -0.1726072376179245 -0.1886792452830189 0.3950603441922170
v -0.1745004790683962 -0.1886792452830189 0.3933684957252359
v -0.1761923275353774 -0.1886792452830189 0.3914752542747642
v -0.1776615934551887 -0.1886792452830189 0.3894044811320755
v -0.1788898511202830 -0.1886792452830189 0.3871822486733491
v -0.1798614386792453 -0.1886792452830189 0.3848364718455189
v -0.1805643794221698 -0.1886792452830189 0.3823967239091982
v -0.1809896447523585 -0.1886792452830189 0.3798934994103774
v 0.1610255748820755 -0.1886792452830189 0.3998576614091982
v 0.1635288915094340 -0.1886792452830189 0.3994323039504717
v 0.1659684551886793 -0.1886792452830189 0.3987294553360849
v 0.1683144162735849 -0.1886792452830189 0.3977577756485849
v 0.1705365566037736 -0.1886792452830189 0.3965296101120284
v 0.1726072376179245 -0.1886792452830189 0.3950603441922170
v 0.1745006633254717 -0.1886792452830189 0.3933684957252359
v 0.1761925117924528 -0.1886792452830189 0.3914752542747642
v 0.1776617777122642 -0.1886792452830189 0.3894044811320755
v 0.1788900353773585 -0.1886792452830189 0.3871822486733491
v 0.1798614386792453 -0.1886792452830189 0.3848364718455189
v 0.1805645636792453 -0.1886792452830189 0.3823967239091982
v 0.1809898290094340 -0.1886792452830189 0.3798934994103774
v -0.1811320754716981 0.1886792452830189 -0.0301886792452830
v -0.1811320754716981 -0.1886792452830189 -0.0301886792452830
v 0.1811320754716981 -0.1886792452830189 -0.0301886792452830
v 0.1811320754716981 0.1886792452830189 -0.0301886792452830
v 0.1433962264150944 0.1509433962264151 -0.0301886792452830
v 0.1056603773584906 0.1509433962264151 -0.0301886792452830
v 0.1433962264150944 0.1132075471698113 -0.0301886792452830
v -0.1056603773584906 0.1509433962264151 -0.0301886792452830
v -0.1433962264150944 0.1509433962264151 -0.0301886792452830
v 0.1056603773584906 0.1132075471698113 -0.0301886792452830
v -0.1056603773584906 0.1132075471698113 -0.0301886792452830
v 0.1433962264150944 -0.1132075471698113 -0.0301886792452830
v 0.1056603773584906 -0.1132075471698113 -0.0301886792452830
v 0.1433962264150944 -0.1509433962264151 -0.0301886792452830
v -0.1433962264150944 0.1132075471698113 -0.0301886792452830
v 0.1056603773584906 -0.1509433962264151 -0.0301886792452830
v -0.1056603773584906 -0.1132075471698113 -0.0301886792452830
v -0.1433962264150944 -0.1132075471698113 -0.0301886792452830
v -0.1056603773584906 -0.1509433962264151 -0.0301886792452830
v -0.1433962264150944 -0.1509433962264151 -0.0301886792452830
v 0.1433962264150944 -0.1132075471698113 -0.4000000000000000
v 0.1056603773584906 -0.1132075471698113 -0.4000000000000000
v 0.1433962264150944 -0.1509433962264151 -0.4000000000000000
v 0.1056603773584906 -0.1509433962264151 -0.4000000000000000
v -0.1056603773584906 -0.1132075471698113 -0.4000000000000000
v -0.1433962264150944 -0.1132075471698113 -0.4000000000000000
v -0.1056603773584906 -0.1509433962264151 -0.4000000000000000
v -0.1433962264150944 -0.1509433962264151 -0.4000000000000000
v -0.1056603773584906 0.1509433962264151 -0.4000000000000000
v -0.1433962264150944 0.1509433962264151 -0.4000000000000000
v -0.1056603773584906 0.1132075471698113 -0.4000000000000000
v -0.1433962264150944 0.1132075471698113 -0.4000000000000000
v 0.1433962264150944 0.1509433962264151 -0.4000000000000000
v 0.1056603773584906 0.1509433962264151 -0.4000000000000000
v 0.1433962264150944 0.1132075471698113 -0.4000000000000000
v 0.1056603773584906 0.1132075471698113 -0.4000000000000000
f 1 2 3
f 4 1 3
f 5 2 6
f 5 3 2
f 7 6 8
f 7 5 6
f 9 8 10
f 9 7 8
f 11 10 12
f 11 9 10
f 13 12 14
f 13 11 12
f 15 14 16
f 15 13 14
f 17 16 18
f 17 15 16
f 19 18 20
f 19 17 18
f 21 20 22
f 21 19 20
f 23 22 24
f 23 21 22
f 25 24 26
f 25 23 24
f 27 26 28
f 27 25 26
f 29 28 30
f 29 27 28
f 31 30 32
f 31 29 30
f 33 31 32
f 33 32 34
f 35 33 34
f 35 34 36
f 37 35 36
f 37 36 38
f 39 37 38
f 39 38 40
f 41 1 42
f 41 2 1
f 43 42 44
f 43 41 42
f 45 44 46
f 45 43 44
f 47 46 48
f 47 45 46
f 49 48 50
f 49 47 48
f 51 50 52
f 51 49 50
f 53 52 54
f 53 51 52
f 55 54 56
f 55 53 54
f 57 56 58
f 57 55 56
f 59 58 60
f 59 57 58
f 61 60 62
f 61 59 60
f 63 62 64
f 63 61 62
f 65 64 66
f 65 63 64
f 67 66 68
f 67 65 66
f 4 69 70
f 3 69 4
f 70 71 72
f 69 71 70
f 72 73 74
f 71 73 72
f 74 75 76
f 73 75 74
f 76 77 78
f 75 77 76
f 78 79 80
f 77 79 78
f 80 81 82
f 79 81 80
f 82 83 84
f 81 83 82
f 84 85 86
f 83 85 84
f 86 87 88
f 85 87 86
f 88 89 90
f 87 89 88
f 90 91 92
f 89 91 90
f 92 93 94
f 91 93 92
f 94 95 96
f 93 95 94
f 1 4 97
f 1 97 98
f 99 39 40
f 99 100 39
f 101 102 103
f 104 105 106
f 107 108 109
f 110 111 112
f 113 111 110
f 109 108 114
f 115 116 117
f 118 119 120
f 120 119 121
f 122 116 115
f 123 124 125
f 126 127 128
f 129 124 130
f 131 127 126
f 130 124 132
f 128 127 133
f 133 127 134
f 132 124 123
f 135 136 137
f 138 139 140
f 141 139 142
f 143 139 138
f 140 139 141
f 144 136 135
f 145 146 147
f 114 146 145
f 117 148 149
f 149 148 150
f 151 152 153
f 154 155 156
f 112 155 154
f 121 152 151
f 125 157 158
f 159 160 161
f 158 157 162
f 142 160 159
f 137 163 164
f 164 163 165
f 101 166 102
f 147 166 101
f 153 167 107
f 150 168 104
f 107 167 108
f 104 168 105
f 156 169 24
f 24 169 26
f 162 170 122
f 118 171 119
f 122 170 116
f 161 171 118
f 131 172 127
f 134 172 173
f 113 174 111
f 102 172 131
f 165 174 113
f 127 172 134
f 108 175 114
f 105 176 144
f 114 175 146
f 119 177 121
f 144 176 136
f 111 178 112
f 121 177 152
f 112 178 155
f 143 179 139
f 142 179 160
f 139 179 142
f 146 180 147
f 116 181 117
f 147 180 166
f 117 181 148
f 182 183 129
f 129 183 124
f 124 183 125
f 125 183 157
f 152 184 153
f 153 184 167
f 136 185 137
f 137 185 163
f 160 186 161
f 161 186 171
f 148 187 150
f 173 188 189
f 150 187 168
f 172 188 173
f 102 188 172
f 166 188 102
f 108 190 175
f 156 191 169
f 155 191 156
f 167 190 108
f 157 192 162
f 162 192 170
f 171 193 119
f 119 193 177
f 165 194 174
f 163 194 165
f 105 195 176
f 175 196 146
f 146 196 180
f 168 195 105
f 26 197 28
f 152 198 184
f 169 197 26
f 177 198 152
f 160 199 186
f 200 199 143
f 179 199 160
f 116 201 181
f 143 199 179
f 170 201 116
f 189 202 203
f 174 204 111
f 188 202 189
f 180 202 166
f 111 204 178
f 166 202 188
f 167 205 190
f 136 206 185
f 176 206 136
f 184 205 167
f 181 207 148
f 171 208 193
f 148 207 187
f 186 208 171
f 178 209 155
f 175 210 196
f 190 210 175
f 193 211 177
f 155 209 191
f 183 212 157
f 182 212 183
f 157 212 192
f 177 211 198
f 196 213 180
f 185 214 163
f 163 214 194
f 203 213 215
f 180 213 202
f 202 213 203
f 184 216 205
f 187 217 168
f 168 217 195
f 191 218 169
f 198 216 184
f 200 219 199
f 186 219 208
f 199 219 186
f 190 220 210
f 169 218 197
f 192 221 170
f 170 221 201
f 205 220 190
f 174 222 204
f 208 223 193
f 193 223 211
f 210 224 196
f 194 222 174
f 213 224 215
f 215 224 225
f 197 226 28
f 196 224 213
f 211 227 198
f 176 228 206
f 198 227 216
f 195 228 176
f 205 229 220
f 181 230 207
f 201 230 181
f 216 229 205
f 204 231 178
f 178 231 209
f 200 232 219
f 219 232 208
f 233 232 200
f 208 232 223
f 220 234 210
f 210 234 224
f 224 234 225
f 225 234 235
f 206 236 185
f 185 236 214
f 211 237 227
f 223 237 211
f 191 238 218
f 209 238 191
f 216 239 229
f 227 239 216
f 187 240 217
f 207 240 187
f 229 241 220
f 220 241 234
f 235 241 242
f 242 241 243
f 234 241 235
f 223 244 237
f 233 244 232
f 194 245 222
f 246 244 233
f 214 245 194
f 232 244 223
f 247 248 182
f 182 248 212
f 237 249 227
f 212 248 192
f 41 250 2
f 192 248 221
f 2 250 6
f 227 249 239
f 229 251 241
f 43 252 41
f 239 251 229
f 243 251 253
f 197 254 226
f 241 251 243
f 218 254 197
f 244 255 237
f 217 256 195
f 41 252 250
f 237 255 249
f 246 255 244
f 6 257 8
f 251 258 253
f 195 256 228
f 249 258 239
f 239 258 251
f 221 259 201
f 250 257 6
f 260 261 246
f 201 259 230
f 45 262 43
f 253 261 263
f 263 261 260
f 258 261 253
f 255 261 249
f 249 261 258
f 204 264 231
f 246 261 255
f 43 262 252
f 222 264 204
f 228 265 206
f 250 266 257
f 206 265 236
f 252 266 250
f 28 267 30
f 257 268 8
f 8 268 10
f 226 267 28
f 47 269 45
f 230 270 207
f 207 270 240
f 45 269 262
f 231 271 209
f 209 271 238
f 214 272 245
f 262 273 252
f 252 273 266
f 236 272 214
f 257 274 268
f 266 274 257
f 49 275 47
f 238 276 218
f 218 276 254
f 240 277 217
f 47 275 269
f 217 277 256
f 222 278 264
f 10 279 12
f 268 279 10
f 245 278 222
f 248 280 221
f 221 280 259
f 247 280 248
f 226 281 267
f 269 282 262
f 262 282 273
f 254 281 226
f 228 283 265
f 273 284 266
f 266 284 274
f 49 285 275
f 256 283 228
f 51 285 49
f 264 286 231
f 231 286 271
f 259 287 230
f 268 288 279
f 230 287 270
f 274 288 268
f 275 289 269
f 236 290 272
f 269 289 282
f 265 290 236
f 30 291 32
f 12 292 14
f 267 291 30
f 279 292 12
f 271 293 238
f 273 294 284
f 282 294 273
f 238 293 276
f 53 295 51
f 270 296 240
f 240 296 277
f 51 295 285
f 272 297 245
f 245 297 278
f 274 298 288
f 254 299 281
f 284 298 274
f 275 300 289
f 276 299 254
f 285 300 275
f 277 301 256
f 288 302 279
f 256 301 283
f 280 303 259
f 304 303 247
f 279 302 292
f 259 303 287
f 289 305 282
f 247 303 280
f 282 305 294
f 264 306 286
f 55 307 53
f 278 306 264
f 283 308 265
f 265 308 290
f 53 307 295
f 14 309 16
f 292 309 14
f 267 310 291
f 284 311 298
f 281 310 267
f 294 311 284
f 286 312 271
f 285 313 300
f 295 313 285
f 271 312 293
f 270 314 296
f 287 314 270
f 298 315 288
f 288 315 302
f 272 316 297
f 290 316 272
f 289 317 305
f 32 318 34
f 300 317 289
f 291 318 32
f 57 319 55
f 277 320 301
f 55 319 307
f 296 320 277
f 302 321 292
f 292 321 309
f 276 322 299
f 293 322 276
f 297 323 278
f 294 324 311
f 305 324 294
f 278 323 306
f 307 325 295
f 301 326 283
f 295 325 313
f 309 327 16
f 283 326 308
f 299 328 281
f 298 329 315
f 281 328 310
f 311 329 298
f 286 330 312
f 306 330 286
f 300 331 317
f 313 331 300
f 302 332 321
f 304 333 303
f 303 333 287
f 287 333 314
f 315 332 302
f 308 334 290
f 59 335 57
f 290 334 316
f 57 335 319
f 291 336 318
f 305 337 324
f 310 336 291
f 317 337 305
f 319 338 307
f 314 339 296
f 296 339 320
f 307 338 325
f 309 340 327
f 312 341 293
f 293 341 322
f 321 340 309
f 324 342 311
f 297 343 323
f 316 343 297
f 311 342 329
f 34 344 36
f 325 345 313
f 318 344 34
f 313 345 331
f 327 346 16
f 16 346 18
f 301 347 326
f 320 347 301
f 61 348 59
f 322 349 299
f 59 348 335
f 299 349 328
f 306 350 330
f 315 351 332
f 323 350 306
f 329 351 315
f 331 352 317
f 317 352 337
f 308 353 334
f 326 353 308
f 328 354 310
f 319 355 338
f 335 355 319
f 310 354 336
f 321 356 340
f 333 357 314
f 358 357 304
f 332 356 321
f 304 357 333
f 314 357 339
f 312 359 341
f 324 360 342
f 330 359 312
f 337 360 324
f 325 361 345
f 334 362 316
f 338 361 325
f 316 362 343
f 340 363 327
f 327 363 346
f 318 364 344
f 63 365 61
f 61 365 348
f 336 364 318
f 339 366 320
f 329 367 351
f 342 367 329
f 320 366 347
f 341 368 322
f 322 368 349
f 331 369 352
f 345 369 331
f 346 370 18
f 18 370 20
f 323 371 350
f 343 371 323
f 344 372 36
f 351 373 332
f 36 372 38
f 332 373 356
f 326 374 353
f 347 374 326
f 335 375 355
f 328 376 354
f 348 375 335
f 349 376 328
f 337 377 360
f 350 378 330
f 352 377 337
f 356 379 340
f 330 378 359
f 340 379 363
f 334 380 362
f 355 381 338
f 353 380 334
f 338 381 361
f 354 103 336
f 360 106 342
f 336 103 364
f 342 106 367
f 65 382 63
f 339 383 366
f 67 382 65
f 138 383 358
f 130 382 67
f 358 383 357
f 63 382 365
f 357 383 339
f 341 109 368
f 361 115 345
f 345 115 369
f 359 109 341
f 346 110 370
f 362 120 343
f 363 110 346
f 343 120 371
f 367 135 351
f 344 126 372
f 351 135 373
f 364 126 344
f 365 123 348
f 347 141 374
f 348 123 375
f 366 141 347
f 349 145 376
f 368 145 349
f 369 149 352
f 352 149 377
f 20 154 22
f 350 151 378
f 370 154 20
f 371 151 350
f 355 158 381
f 375 158 355
f 372 384 38
f 38 384 40
f 40 384 385
f 373 164 356
f 353 159 380
f 356 164 379
f 374 159 353
f 360 104 106
f 354 101 103
f 377 104 360
f 376 101 354
f 361 122 115
f 378 107 359
f 381 122 361
f 363 113 110
f 359 107 109
f 379 113 363
f 380 118 362
f 362 118 120
f 367 144 135
f 106 144 367
f 365 132 123
f 103 131 364
f 130 132 382
f 364 131 126
f 382 132 365
f 115 117 369
f 383 140 366
f 138 140 383
f 366 140 141
f 369 117 149
f 368 114 145
f 110 112 370
f 109 114 368
f 370 112 154
f 371 121 151
f 123 125 375
f 375 125 158
f 120 121 371
f 384 128 385
f 385 128 133
f 135 137 373
f 126 128 372
f 372 128 384
f 373 137 164
f 374 142 159
f 149 150 377
f 377 150 104
f 141 142 374
f 376 147 101
f 22 156 24
f 145 147 376
f 154 156 22
f 381 162 122
f 151 153 378
f 158 162 381
f 378 153 107
f 379 165 113
f 380 161 118
f 159 161 380
f 103 102 131
f 164 165 379
f 106 105 144
f 386 387 388
f 389 390 391
f 392 393 394
f 395 396 397
f 395 398 396
f 392 394 399
f 400 401 402
f 403 404 405
f 403 405 406
f 400 407 401
f 408 409 410
f 411 412 413
f 408 414 415
f 411 416 412
f 408 415 417
f 411 413 418
f 411 418 419
f 408 417 409
f 420 421 422
f 423 424 425
f 423 426 427
f 423 428 424
f 423 425 426
f 420 429 421
f 430 431 432
f 430 399 431
f 433 402 434
f 433 434 435
f 436 437 438
f 439 440 441
f 439 397 440
f 436 406 437
f 442 410 443
f 444 445 446
f 442 443 447
f 444 427 445
f 448 422 449
f 448 449 450
f 451 387 386
f 451 432 387
f 452 438 393
f 453 435 390
f 452 393 392
f 453 390 389
f 454 441 23
f 454 23 25
f 455 447 407
f 456 404 403
f 455 407 400
f 456 446 404
f 457 416 411
f 457 419 458
f 459 398 395
f 457 386 416
f 459 450 398
f 457 411 419
f 460 392 399
f 461 389 429
f 460 399 430
f 462 403 406
f 461 429 420
f 463 395 397
f 462 406 436
f 463 397 439
f 464 428 423
f 464 427 444
f 464 423 427
f 465 430 432
f 466 400 402
f 465 432 451
f 466 402 433
f 467 468 414
f 467 414 408
f 467 408 410
f 467 410 442
f 469 436 438
f 469 438 452
f 470 420 422
f 470 422 448
f 471 444 446
f 471 446 456
f 472 433 435
f 473 458 474
f 472 435 453
f 473 457 458
f 473 386 457
f 473 451 386
f 475 392 460
f 476 441 454
f 476 439 441
f 475 452 392
f 477 442 447
f 477 447 455
f 478 456 403
f 478 403 462
f 479 450 459
f 479 448 450
f 480 389 461
f 481 460 430
f 481 430 465
f 480 453 389
f 482 25 27
f 483 436 469
f 482 454 25
f 483 462 436
f 484 444 471
f 484 485 428
f 484 464 444
f 486 400 466
f 484 428 464
f 486 455 400
f 487 474 488
f 489 459 395
f 487 473 474
f 487 465 451
f 489 395 463
f 487 451 473
f 490 452 475
f 491 420 470
f 491 461 420
f 490 469 452
f 492 466 433
f 493 456 478
f 492 433 472
f 493 471 456
f 494 463 439
f 495 460 481
f 495 475 460
f 496 478 462
f 494 439 476
f 497 467 442
f 497 468 467
f 497 442 477
f 496 462 483
f 498 481 465
f 499 470 448
f 499 448 479
f 498 488 500
f 498 465 487
f 498 487 488
f 501 469 490
f 502 472 453
f 502 453 480
f 503 476 454
f 501 483 469
f 504 485 484
f 504 471 493
f 504 484 471
f 505 475 495
f 503 454 482
f 506 477 455
f 506 455 486
f 505 490 475
f 507 459 489
f 508 493 478
f 508 478 496
f 509 495 481
f 507 479 459
f 509 498 500
f 509 500 510
f 511 482 27
f 509 481 498
f 512 496 483
f 513 461 491
f 512 483 501
f 513 480 461
f 514 490 505
f 515 466 492
f 515 486 466
f 514 501 490
f 516 489 463
f 516 463 494
f 517 485 504
f 517 504 493
f 517 518 485
f 517 493 508
f 519 505 495
f 519 495 509
f 519 509 510
f 519 510 520
f 521 491 470
f 521 470 499
f 522 496 512
f 522 508 496
f 523 476 503
f 523 494 476
f 524 501 514
f 524 512 501
f 525 472 502
f 525 492 472
f 526 514 505
f 526 505 519
f 526 520 527
f 526 527 528
f 526 519 520
f 529 508 522
f 529 518 517
f 530 479 507
f 529 531 518
f 530 499 479
f 529 517 508
f 532 533 468
f 532 468 497
f 534 522 512
f 532 497 477
f 535 69 3
f 532 477 506
f 535 3 5
f 534 512 524
f 536 514 526
f 537 71 69
f 536 524 514
f 536 528 538
f 539 482 511
f 536 526 528
f 539 503 482
f 540 529 522
f 541 502 480
f 537 69 535
f 540 522 534
f 540 531 529
f 542 5 7
f 543 536 538
f 541 480 513
f 543 534 524
f 543 524 536
f 544 506 486
f 542 535 5
f 545 546 531
f 544 486 515
f 547 73 71
f 545 538 548
f 545 548 546
f 545 543 538
f 545 540 534
f 545 534 543
f 549 489 516
f 545 531 540
f 547 71 537
f 549 507 489
f 550 513 491
f 551 535 542
f 550 491 521
f 551 537 535
f 552 27 29
f 553 542 7
f 553 7 9
f 552 511 27
f 554 75 73
f 555 515 492
f 555 492 525
f 554 73 547
f 556 516 494
f 556 494 523
f 557 499 530
f 558 547 537
f 558 537 551
f 557 521 499
f 559 542 553
f 559 551 542
f 560 77 75
f 561 523 503
f 561 503 539
f 562 525 502
f 560 75 554
f 562 502 541
f 563 507 549
f 564 9 11
f 564 553 9
f 563 530 507
f 565 532 506
f 565 506 544
f 565 533 532
f 566 511 552
f 567 554 547
f 567 547 558
f 566 539 511
f 568 513 550
f 569 558 551
f 569 551 559
f 570 77 560
f 568 541 513
f 570 79 77
f 571 549 516
f 571 516 556
f 572 544 515
f 573 553 564
f 572 515 555
f 573 559 553
f 574 560 554
f 575 521 557
f 574 554 567
f 575 550 521
f 576 29 31
f 577 11 13
f 576 552 29
f 577 564 11
f 578 556 523
f 579 558 569
f 579 567 558
f 578 523 561
f 580 81 79
f 581 555 525
f 581 525 562
f 580 79 570
f 582 557 530
f 582 530 563
f 583 559 573
f 584 539 566
f 583 569 559
f 585 560 574
f 584 561 539
f 585 570 560
f 586 562 541
f 587 573 564
f 586 541 568
f 588 565 544
f 588 589 533
f 587 564 577
f 588 544 572
f 590 574 567
f 588 533 565
f 590 567 579
f 591 549 571
f 592 83 81
f 591 563 549
f 593 568 550
f 593 550 575
f 592 81 580
f 594 13 15
f 594 577 13
f 595 552 576
f 596 569 583
f 595 566 552
f 596 579 569
f 597 571 556
f 598 570 585
f 598 580 570
f 597 556 578
f 599 555 581
f 599 572 555
f 600 583 573
f 600 573 587
f 601 557 582
f 601 575 557
f 602 574 590
f 603 31 33
f 602 585 574
f 603 576 31
f 604 85 83
f 605 562 586
f 604 83 592
f 605 581 562
f 606 587 577
f 606 577 594
f 607 561 584
f 607 578 561
f 608 582 563
f 609 579 596
f 609 590 579
f 608 563 591
f 610 592 580
f 611 586 568
f 610 580 598
f 612 594 15
f 611 568 593
f 613 584 566
f 614 583 600
f 613 566 595
f 614 596 583
f 615 571 597
f 615 591 571
f 616 585 602
f 616 598 585
f 617 587 606
f 618 589 588
f 618 588 572
f 618 572 599
f 617 600 587
f 619 593 575
f 620 87 85
f 619 575 601
f 620 85 604
f 621 576 603
f 622 590 609
f 621 595 576
f 622 602 590
f 623 604 592
f 624 599 581
f 624 581 605
f 623 592 610
f 625 594 612
f 626 597 578
f 626 578 607
f 625 606 594
f 627 609 596
f 628 582 608
f 628 601 582
f 627 596 614
f 629 33 35
f 630 610 598
f 629 603 33
f 630 598 616
f 631 612 15
f 631 15 17
f 632 586 611
f 632 605 586
f 633 89 87
f 634 607 584
f 633 87 620
f 634 584 613
f 635 591 615
f 636 600 617
f 635 608 591
f 636 614 600
f 637 616 602
f 637 602 622
f 638 593 619
f 638 611 593
f 639 613 595
f 640 604 623
f 640 620 604
f 639 595 621
f 641 606 625
f 642 618 599
f 642 643 589
f 641 617 606
f 642 589 618
f 642 599 624
f 644 597 626
f 645 609 627
f 644 615 597
f 645 622 609
f 646 610 630
f 647 619 601
f 646 623 610
f 647 601 628
f 648 625 612
f 648 612 631
f 649 603 629
f 650 91 89
f 650 89 633
f 649 621 603
f 651 624 605
f 652 614 636
f 652 627 614
f 651 605 632
f 653 626 607
f 653 607 634
f 654 616 637
f 654 630 616
f 655 631 17
f 655 17 19
f 656 608 635
f 656 628 608
f 657 629 35
f 658 636 617
f 657 35 37
f 658 617 641
f 659 611 638
f 659 632 611
f 660 620 640
f 661 613 639
f 660 633 620
f 661 634 613
f 662 622 645
f 663 635 615
f 662 637 622
f 664 641 625
f 663 615 644
f 664 625 648
f 665 619 647
f 666 640 623
f 665 638 619
f 666 623 646
f 388 639 621
f 391 645 627
f 388 621 649
f 391 627 652
f 667 93 91
f 668 624 651
f 667 95 93
f 668 424 643
f 667 415 95
f 668 643 642
f 667 91 650
f 668 642 624
f 394 626 653
f 401 646 630
f 401 630 654
f 394 644 626
f 396 631 655
f 405 647 628
f 396 648 631
f 405 628 656
f 421 652 636
f 412 629 657
f 421 636 658
f 412 649 629
f 409 650 633
f 426 632 659
f 409 633 660
f 426 651 632
f 431 634 661
f 431 653 634
f 434 654 637
f 434 637 662
f 440 19 21
f 437 635 663
f 440 655 19
f 437 656 635
f 443 640 666
f 443 660 640
f 669 657 37
f 669 37 39
f 669 39 670
f 449 658 641
f 445 638 665
f 449 641 664
f 445 659 638
f 390 645 391
f 387 639 388
f 390 662 645
f 387 661 639
f 407 646 401
f 393 663 644
f 407 666 646
f 398 648 396
f 393 644 394
f 398 664 648
f 404 665 647
f 404 647 405
f 429 652 421
f 429 391 652
f 417 650 409
f 416 388 649
f 417 415 667
f 416 649 412
f 417 667 650
f 402 401 654
f 425 668 651
f 425 424 668
f 425 651 426
f 402 654 434
f 399 653 431
f 397 396 655
f 399 394 653
f 397 655 440
f 406 656 437
f 410 409 660
f 410 660 443
f 406 405 656
f 413 669 670
f 413 670 418
f 422 421 658
f 413 412 657
f 413 657 669
f 422 658 449
f 427 659 445
f 435 434 662
f 435 662 390
f 427 426 659
f 432 661 387
f 441 21 23
f 432 431 661
f 441 440 21
f 447 666 407
f 438 437 663
f 447 443 666
f 438 663 393
f 450 664 398
f 446 665 404
f 446 445 665
f 386 388 416
f 450 449 664
f 389 391 429
f 42 1 671
f 672 42 671
f 44 42 672
f 673 44 672
f 46 44 673
f 674 46 673
f 48 46 674
f 675 48 674
f 50 48 675
f 676 50 675
f 52 676 677
f 52 50 676
f 54 677 678
f 54 52 677
f 56 678 679
f 56 54 678
f 58 679 680
f 58 56 679
f 60 680 681
f 60 58 680
f 62 681 682
f 62 60 681
f 64 682 683
f 64 62 682
f 66 683 684
f 66 64 683
f 68 684 685
f 68 66 684
f 200 246 233
f 138 200 143
f 358 246 200
f 358 200 138
f 304 246 358
f 129 247 182
f 130 304 247
f 130 246 304
f 130 247 129
f 67 260 246
f 67 686 260
f 67 246 130
f 687 686 67
f 68 687 67
f 4 70 688
f 70 689 688
f 70 72 689
f 72 690 689
f 72 74 690
f 74 691 690
f 74 76 691
f 76 692 691
f 76 78 692
f 78 693 692
f 693 80 694
f 78 80 693
f 694 82 695
f 80 82 694
f 695 84 696
f 82 84 695
f 696 86 697
f 84 86 696
f 697 88 698
f 86 88 697
f 698 90 699
f 88 90 698
f 699 92 700
f 90 92 699
f 700 94 701
f 92 94 700
f 701 96 702
f 94 96 701
f 485 643 424
f 485 424 428
f 415 414 468
f 415 468 533
f 415 533 589
f 531 589 643
f 531 485 518
f 531 643 485
f 95 415 589
f 546 589 531
f 546 95 589
f 703 95 546
f 704 96 95
f 704 95 703
f 705 701 702
f 706 707 705
f 705 707 701
f 701 708 700
f 707 708 701
f 708 709 700
f 700 710 699
f 709 710 700
f 699 711 698
f 710 711 699
f 698 712 697
f 711 712 698
f 697 713 696
f 712 713 697
f 713 714 696
f 696 715 695
f 714 715 696
f 695 716 694
f 715 716 695
f 694 717 693
f 716 717 694
f 693 718 692
f 717 718 693
f 692 719 691
f 718 719 692
f 691 720 690
f 719 720 691
f 690 721 689
f 720 721 690
f 721 722 689
f 689 722 688
f 688 97 4
f 722 97 688
f 723 97 722
f 723 98 97
f 724 722 721
f 724 723 722
f 725 721 720
f 725 724 721
f 726 720 719
f 726 725 720
f 727 719 718
f 727 718 717
f 727 726 719
f 728 717 716
f 728 727 717
f 729 716 715
f 729 728 716
f 730 715 714
f 730 729 715
f 731 714 713
f 731 730 714
f 732 713 712
f 732 731 713
f 733 732 712
f 734 712 711
f 734 733 712
f 735 711 710
f 735 734 711
f 736 710 709
f 736 735 710
f 737 736 709
f 737 709 708
f 738 737 708
f 738 708 707
f 739 738 707
f 739 707 706
f 671 1 98
f 671 98 723
f 672 723 724
f 672 671 723
f 673 724 725
f 673 672 724
f 674 725 726
f 674 673 725
f 675 726 727
f 675 674 726
f 676 727 728
f 676 675 727
f 677 728 729
f 677 676 728
f 678 729 730
f 678 677 729
f 679 730 731
f 679 731 732
f 679 678 730
f 680 732 733
f 680 679 732
f 681 733 734
f 681 680 733
f 682 734 735
f 682 681 734
f 683 735 736
f 683 736 737
f 683 682 735
f 684 737 738
f 684 683 737
f 740 684 738
f 740 738 739
f 685 684 740
f 741 40 385
f 741 99 40
f 742 385 133
f 742 741 385
f 743 133 134
f 743 742 133
f 744 134 173
f 744 743 134
f 745 173 189
f 745 744 173
f 746 189 203
f 746 745 189
f 747 203 215
f 747 746 203
f 748 215 225
f 748 747 215
f 749 225 235
f 749 748 225
f 750 235 242
f 750 749 235
f 751 242 243
f 751 750 242
f 752 243 253
f 752 751 243
f 753 253 263
f 753 752 253
f 686 263 260
f 686 753 263
f 39 754 670
f 100 754 39
f 670 755 418
f 754 755 670
f 418 756 419
f 755 756 418
f 419 757 458
f 756 757 419
f 458 758 474
f 757 758 458
f 474 759 488
f 758 759 474
f 488 760 500
f 759 760 488
f 500 761 510
f 760 761 500
f 510 762 520
f 761 762 510
f 520 763 527
f 762 763 520
f 527 764 528
f 763 764 527
f 528 765 538
f 764 765 528
f 538 766 548
f 765 766 538
f 548 703 546
f 766 703 548
f 759 761 760
f 763 762 761
f 756 758 757
f 755 759 758
f 755 758 756
f 766 764 763
f 766 765 764
f 766 763 761
f 703 761 759
f 703 766 761
f 100 755 754
f 100 759 755
f 100 703 759
f 99 703 100
f 742 99 741
f 745 742 743
f 745 743 744
f 746 99 742
f 746 742 745
f 748 746 747
f 748 99 746
f 751 749 750
f 752 748 749
f 752 749 751
f 686 752 753
f 686 703 99
f 686 748 752
f 686 99 748
f 687 704 703
f 687 703 686
f 767 740 739
f 685 687 68
f 740 768 685
f 685 768 687
f 767 768 740
f 704 702 96
f 769 702 704
f 769 705 702
f 705 770 706
f 769 770 705
f 770 739 706
f 770 767 739
f 768 769 687
f 687 769 704
f 771 772 770
f 770 773 771
f 774 767 772
f 772 767 770
f 774 775 767
f 776 777 772
f 772 777 774
f 773 769 778
f 770 769 773
f 773 779 776
f 778 779 773
f 769 780 778
f 775 781 767
f 769 782 780
f 776 783 777
f 779 783 776
f 777 784 781
f 783 784 777
f 782 785 779
f 779 785 783
f 785 768 786
f 786 768 784
f 781 768 767
f 784 768 781
f 769 768 782
f 782 768 785
f 778 787 788
f 779 778 788
f 780 789 787
f 778 780 787
f 782 790 789
f 780 782 789
f 779 788 790
f 782 779 790
f 783 791 792
f 784 783 792
f 785 793 791
f 783 785 791
f 786 794 793
f 785 786 793
f 784 792 794
f 786 784 794
f 774 795 796
f 775 774 796
f 777 797 795
f 774 777 795
f 781 798 797
f 777 781 797
f 775 796 798
f 781 775 798
f 771 799 800
f 772 771 800
f 773 801 799
f 771 773 799
f 776 802 801
f 773 776 801
f 772 800 802
f 776 772 802
f 787 790 788
f 789 790 787
f 791 794 792
f 793 794 791
f 795 798 796
f 797 798 795
f 799 802 800
f 801 802 799
